<mxfile host="app.diagrams.net" modified="2024-05-12T06:05:43.845Z" agent="Mozilla/5.0 (X11; Ubuntu; Linux x86_64; rv:124.0) Gecko/20100101 Firefox/124.0" etag="ts3hm4D7bcR4vgBTFYIV" version="24.4.0" type="device">
  <diagram name="Page-1" id="2YBvvXClWsGukQMizWep">
    <mxGraphModel dx="1298" dy="734" grid="1" gridSize="10" guides="1" tooltips="1" connect="1" arrows="1" fold="1" page="1" pageScale="1" pageWidth="850" pageHeight="1100" math="0" shadow="0">
      <root>
        <mxCell id="0" />
        <mxCell id="1" parent="0" />
        <mxCell id="Pc8auaTFQ1UGQjP6-LpM-1" value="I" style="rounded=0;whiteSpace=wrap;html=1;fillColor=#fff2cc;strokeColor=#d6b656;" vertex="1" parent="1">
          <mxGeometry x="230" y="430" width="50" height="50" as="geometry" />
        </mxCell>
        <mxCell id="Pc8auaTFQ1UGQjP6-LpM-2" value="AM" style="rounded=0;whiteSpace=wrap;html=1;fillColor=#fff2cc;strokeColor=#d6b656;" vertex="1" parent="1">
          <mxGeometry x="300" y="430" width="50" height="50" as="geometry" />
        </mxCell>
        <mxCell id="Pc8auaTFQ1UGQjP6-LpM-3" value="HAPPY" style="rounded=0;whiteSpace=wrap;html=1;fillColor=#fff2cc;strokeColor=#d6b656;" vertex="1" parent="1">
          <mxGeometry x="370" y="430" width="50" height="50" as="geometry" />
        </mxCell>
        <mxCell id="Pc8auaTFQ1UGQjP6-LpM-4" value="&lt;div&gt;AU6B&lt;/div&gt;&lt;div&gt;AU12C&lt;br&gt;&lt;/div&gt;" style="rounded=0;whiteSpace=wrap;html=1;fillColor=#f8cecc;strokeColor=#b85450;" vertex="1" parent="1">
          <mxGeometry x="230" y="510" width="50" height="50" as="geometry" />
        </mxCell>
        <mxCell id="Pc8auaTFQ1UGQjP6-LpM-6" value="&lt;div&gt;AU6C&lt;/div&gt;&lt;div&gt;AU12C&lt;br&gt;&lt;/div&gt;" style="rounded=0;whiteSpace=wrap;html=1;fillColor=#f8cecc;strokeColor=#b85450;" vertex="1" parent="1">
          <mxGeometry x="300" y="510" width="50" height="50" as="geometry" />
        </mxCell>
        <mxCell id="Pc8auaTFQ1UGQjP6-LpM-7" value="&lt;div&gt;AU6D&lt;/div&gt;&lt;div&gt;AU12D&lt;br&gt;&lt;/div&gt;" style="rounded=0;whiteSpace=wrap;html=1;fillColor=#f8cecc;strokeColor=#b85450;" vertex="1" parent="1">
          <mxGeometry x="370" y="510" width="50" height="50" as="geometry" />
        </mxCell>
        <mxCell id="Pc8auaTFQ1UGQjP6-LpM-10" value="" style="shape=orEllipse;perimeter=ellipsePerimeter;whiteSpace=wrap;html=1;backgroundOutline=1;" vertex="1" parent="1">
          <mxGeometry x="250" y="490" width="10" height="10" as="geometry" />
        </mxCell>
        <mxCell id="Pc8auaTFQ1UGQjP6-LpM-11" value="" style="shape=orEllipse;perimeter=ellipsePerimeter;whiteSpace=wrap;html=1;backgroundOutline=1;" vertex="1" parent="1">
          <mxGeometry x="320" y="490" width="10" height="10" as="geometry" />
        </mxCell>
        <mxCell id="Pc8auaTFQ1UGQjP6-LpM-12" value="" style="shape=orEllipse;perimeter=ellipsePerimeter;whiteSpace=wrap;html=1;backgroundOutline=1;" vertex="1" parent="1">
          <mxGeometry x="390" y="490" width="10" height="10" as="geometry" />
        </mxCell>
        <mxCell id="Pc8auaTFQ1UGQjP6-LpM-16" value="DECODER" style="rounded=0;whiteSpace=wrap;html=1;" vertex="1" parent="1">
          <mxGeometry x="230" y="270" width="330" height="110" as="geometry" />
        </mxCell>
        <mxCell id="Pc8auaTFQ1UGQjP6-LpM-17" value="" style="endArrow=classic;html=1;rounded=0;" edge="1" parent="1">
          <mxGeometry width="50" height="50" relative="1" as="geometry">
            <mxPoint x="260" y="420" as="sourcePoint" />
            <mxPoint x="260" y="390" as="targetPoint" />
          </mxGeometry>
        </mxCell>
        <mxCell id="Pc8auaTFQ1UGQjP6-LpM-18" value="" style="endArrow=classic;html=1;rounded=0;" edge="1" parent="1">
          <mxGeometry width="50" height="50" relative="1" as="geometry">
            <mxPoint x="324.83" y="420" as="sourcePoint" />
            <mxPoint x="324.83" y="390" as="targetPoint" />
          </mxGeometry>
        </mxCell>
        <mxCell id="Pc8auaTFQ1UGQjP6-LpM-19" value="" style="endArrow=classic;html=1;rounded=0;" edge="1" parent="1">
          <mxGeometry width="50" height="50" relative="1" as="geometry">
            <mxPoint x="394.83" y="420" as="sourcePoint" />
            <mxPoint x="394.83" y="390" as="targetPoint" />
          </mxGeometry>
        </mxCell>
        <mxCell id="Pc8auaTFQ1UGQjP6-LpM-20" value="LM HEAD 1" style="rounded=0;whiteSpace=wrap;html=1;fillColor=#dae8fc;strokeColor=#6c8ebf;" vertex="1" parent="1">
          <mxGeometry x="210" y="170" width="160" height="50" as="geometry" />
        </mxCell>
        <mxCell id="Pc8auaTFQ1UGQjP6-LpM-21" value="LM HEAD 2" style="rounded=0;whiteSpace=wrap;html=1;fillColor=#dae8fc;strokeColor=#6c8ebf;" vertex="1" parent="1">
          <mxGeometry x="420" y="170" width="160" height="50" as="geometry" />
        </mxCell>
        <mxCell id="Pc8auaTFQ1UGQjP6-LpM-28" value="" style="endArrow=classic;html=1;rounded=0;fillColor=#f5f5f5;strokeColor=#CCCCCC;" edge="1" parent="1">
          <mxGeometry width="50" height="50" relative="1" as="geometry">
            <mxPoint x="229.57999999999998" y="260" as="sourcePoint" />
            <mxPoint x="229.57999999999998" y="230" as="targetPoint" />
          </mxGeometry>
        </mxCell>
        <mxCell id="Pc8auaTFQ1UGQjP6-LpM-29" value="" style="endArrow=classic;html=1;rounded=0;fillColor=#f5f5f5;strokeColor=#CCCCCC;" edge="1" parent="1">
          <mxGeometry width="50" height="50" relative="1" as="geometry">
            <mxPoint x="270" y="260" as="sourcePoint" />
            <mxPoint x="270" y="230" as="targetPoint" />
          </mxGeometry>
        </mxCell>
        <mxCell id="Pc8auaTFQ1UGQjP6-LpM-30" value="" style="endArrow=classic;html=1;rounded=0;" edge="1" parent="1">
          <mxGeometry width="50" height="50" relative="1" as="geometry">
            <mxPoint x="310" y="260" as="sourcePoint" />
            <mxPoint x="310" y="230" as="targetPoint" />
          </mxGeometry>
        </mxCell>
        <mxCell id="Pc8auaTFQ1UGQjP6-LpM-31" value="" style="endArrow=classic;html=1;rounded=0;strokeColor=#CCCCCC;" edge="1" parent="1">
          <mxGeometry width="50" height="50" relative="1" as="geometry">
            <mxPoint x="440" y="260" as="sourcePoint" />
            <mxPoint x="440" y="230" as="targetPoint" />
          </mxGeometry>
        </mxCell>
        <mxCell id="Pc8auaTFQ1UGQjP6-LpM-32" value="" style="endArrow=classic;html=1;rounded=0;strokeColor=#CCCCCC;" edge="1" parent="1">
          <mxGeometry width="50" height="50" relative="1" as="geometry">
            <mxPoint x="479.9999999999999" y="260" as="sourcePoint" />
            <mxPoint x="479.9999999999999" y="230" as="targetPoint" />
          </mxGeometry>
        </mxCell>
        <mxCell id="Pc8auaTFQ1UGQjP6-LpM-33" value="" style="endArrow=classic;html=1;rounded=0;" edge="1" parent="1">
          <mxGeometry width="50" height="50" relative="1" as="geometry">
            <mxPoint x="519.9999999999999" y="260" as="sourcePoint" />
            <mxPoint x="519.9999999999999" y="230" as="targetPoint" />
          </mxGeometry>
        </mxCell>
        <mxCell id="Pc8auaTFQ1UGQjP6-LpM-46" value="" style="endArrow=classic;html=1;rounded=0;" edge="1" parent="1">
          <mxGeometry width="50" height="50" relative="1" as="geometry">
            <mxPoint x="310" y="160" as="sourcePoint" />
            <mxPoint x="310" y="130" as="targetPoint" />
          </mxGeometry>
        </mxCell>
        <mxCell id="Pc8auaTFQ1UGQjP6-LpM-47" value="" style="endArrow=classic;html=1;rounded=0;" edge="1" parent="1">
          <mxGeometry width="50" height="50" relative="1" as="geometry">
            <mxPoint x="519.9999999999999" y="160" as="sourcePoint" />
            <mxPoint x="519.9999999999999" y="130" as="targetPoint" />
          </mxGeometry>
        </mxCell>
        <mxCell id="Pc8auaTFQ1UGQjP6-LpM-48" value="BUT" style="rounded=0;whiteSpace=wrap;html=1;fillColor=#fff2cc;strokeColor=#d6b656;" vertex="1" parent="1">
          <mxGeometry x="285" y="70" width="50" height="50" as="geometry" />
        </mxCell>
        <mxCell id="Pc8auaTFQ1UGQjP6-LpM-49" value="&lt;div&gt;AU1C&lt;/div&gt;&lt;div&gt;AU5C&lt;br&gt;&lt;/div&gt;" style="rounded=0;whiteSpace=wrap;html=1;fillColor=#f8cecc;strokeColor=#b85450;" vertex="1" parent="1">
          <mxGeometry x="495" y="70" width="50" height="50" as="geometry" />
        </mxCell>
      </root>
    </mxGraphModel>
  </diagram>
</mxfile>
